<svg xmlns="http://www.w3.org/2000/svg" viewBox="0 0 512 512">
  <defs>
    <linearGradient id="grad" x1="0%" y1="0%" x2="100%" y2="100%">
      <stop offset="0%" style="stop-color:#ec4899;stop-opacity:1" />
      <stop offset="100%" style="stop-color:#f472b6;stop-opacity:1" />
    </linearGradient>
  </defs>
  <!-- Background -->
  <rect width="512" height="512" rx="128" fill="url(#grad)"/>
  <!-- Shopping bag icon -->
  <g fill="white">
    <!-- Bag body -->
    <path d="M140 180 L140 400 C140 420 156 440 180 440 L332 440 C356 440 372 420 372 400 L372 180 Z" fill="white" opacity="0.95"/>
    <!-- Bag handles -->
    <path d="M190 180 L190 140 C190 100 220 72 256 72 C292 72 322 100 322 140 L322 180" fill="none" stroke="white" stroke-width="28" stroke-linecap="round"/>
    <!-- S letter -->
    <path d="M220 260 C220 240 240 230 260 230 C280 230 295 245 295 260 C295 280 260 285 240 300 C220 315 220 330 220 340 C220 360 240 375 260 375 C285 375 300 355 300 340" fill="none" stroke="#ec4899" stroke-width="24" stroke-linecap="round" stroke-linejoin="round"/>
  </g>
</svg>
